<mxfile host="app.diagrams.net" modified="2021-04-04T14:14:35.549Z" agent="5.0 (Windows NT 10.0; Win64; x64) AppleWebKit/537.36 (KHTML, like Gecko) Chrome/89.0.4389.114 Safari/537.36" etag="lsnbKP2H5pkSTF8MHEdZ" version="14.4.8" type="github">
  <diagram id="xpLhZ2DErq_EMQ2AuY-i" name="Page-1">
    <mxGraphModel dx="-454" dy="677" grid="1" gridSize="10" guides="1" tooltips="1" connect="1" arrows="1" fold="1" page="1" pageScale="1" pageWidth="827" pageHeight="1169" math="0" shadow="0">
      <root>
        <mxCell id="0" />
        <mxCell id="1" parent="0" />
        <mxCell id="NvA4ZjrvZAR6JDkiXc4Q-1" value="" style="ellipse;whiteSpace=wrap;html=1;aspect=fixed;fillColor=#000000;" vertex="1" parent="1">
          <mxGeometry x="1356" y="80" width="21" height="21" as="geometry" />
        </mxCell>
        <mxCell id="NvA4ZjrvZAR6JDkiXc4Q-2" value="" style="endArrow=classic;html=1;exitX=0.5;exitY=1;exitDx=0;exitDy=0;" edge="1" parent="1" source="NvA4ZjrvZAR6JDkiXc4Q-1" target="NvA4ZjrvZAR6JDkiXc4Q-4">
          <mxGeometry width="50" height="50" relative="1" as="geometry">
            <mxPoint x="1079" y="286" as="sourcePoint" />
            <mxPoint x="1367" y="187" as="targetPoint" />
          </mxGeometry>
        </mxCell>
        <mxCell id="NvA4ZjrvZAR6JDkiXc4Q-12" style="edgeStyle=orthogonalEdgeStyle;rounded=0;orthogonalLoop=1;jettySize=auto;html=1;entryX=0.5;entryY=0;entryDx=0;entryDy=0;" edge="1" parent="1" source="NvA4ZjrvZAR6JDkiXc4Q-4" target="NvA4ZjrvZAR6JDkiXc4Q-9">
          <mxGeometry relative="1" as="geometry" />
        </mxCell>
        <mxCell id="NvA4ZjrvZAR6JDkiXc4Q-4" value="Click on HISTORY section" style="rounded=1;whiteSpace=wrap;html=1;fillColor=#dae8fc;strokeColor=#6c8ebf;" vertex="1" parent="1">
          <mxGeometry x="1303" y="135" width="131" height="68" as="geometry" />
        </mxCell>
        <mxCell id="NvA4ZjrvZAR6JDkiXc4Q-9" value="" style="ellipse;whiteSpace=wrap;html=1;aspect=fixed;fillColor=#000000;" vertex="1" parent="1">
          <mxGeometry x="1358" y="240" width="21" height="21" as="geometry" />
        </mxCell>
      </root>
    </mxGraphModel>
  </diagram>
</mxfile>
